<?xml version="1.0" encoding="UTF-8" standalone="no"?>
<svg width="63px" height="55px" viewBox="0 0 63 55" version="1.1" xmlns="http://www.w3.org/2000/svg" xmlns:xlink="http://www.w3.org/1999/xlink">
    <!-- Generator: sketchtool 3.8.3 (29802) - http://www.bohemiancoding.com/sketch -->
    <title>时间icon</title>
    <desc>Created with sketchtool.</desc>
    <defs></defs>
    <g id="ui" stroke="none" stroke-width="1" fill="none" fill-rule="evenodd">
        <g id="4.-团体课详情" transform="translate(-30.000000, -1024.000000)">
            <g id="Featured-Section" transform="translate(0.000000, 129.000000)" fill="#FFFFFF">
                <g id="Body-background" transform="translate(0.000000, 585.000000)">
                    <rect id="Rectangle-41" x="0" y="0" width="750" height="1951"></rect>
                </g>
            </g>
            <g id="场地细节" transform="translate(38.000000, 1008.000000)" fill="#B2B2B2">
                <g id="Work-time" transform="translate(0.000000, 19.000000)">
                    <path d="M24,43.6363636 C13.1563636,43.6363636 4.36363636,34.8458182 4.36363636,24 C4.36363636,13.1563636 13.1563636,4.36363636 24,4.36363636 C34.8436364,4.36363636 43.6363636,13.1563636 43.6363636,24 C43.6363636,34.8458182 34.8436364,43.6363636 24,43.6363636 L24,43.6363636 Z M24,0 C10.7454545,0 0,10.7454545 0,24 C0,37.2545455 10.7454545,48 24,48 C37.2545455,48 48,37.2545455 48,24 C48,10.7454545 37.2545455,0 24,0 L24,0 Z M26.1818182,23.0967273 L26.1818182,10.9090909 C26.1818182,9.70472727 25.2043636,8.72727273 24,8.72727273 C22.7956364,8.72727273 21.8181818,9.70472727 21.8181818,10.9090909 L21.8181818,24 C21.8181818,24.5781818 22.0472727,25.1345455 22.4574545,25.5425455 L29.0029091,32.088 C29.4283636,32.5156364 29.9869091,32.7272727 30.5454545,32.7272727 C31.104,32.7272727 31.6625455,32.5134545 32.088,32.088 C32.9410909,31.2370909 32.9410909,29.856 32.088,29.0029091 L26.1818182,23.0967273 Z" id="Page-1"></path>
                </g>
            </g>
        </g>
    </g>
</svg>