<?xml version="1.0" encoding="UTF-8" standalone="no"?>
<svg width="63px" height="55px" viewBox="0 0 63 55" version="1.1" xmlns="http://www.w3.org/2000/svg" xmlns:xlink="http://www.w3.org/1999/xlink">
    <!-- Generator: sketchtool 3.8.3 (29802) - http://www.bohemiancoding.com/sketch -->
    <title>地址icon</title>
    <desc>Created with sketchtool.</desc>
    <defs></defs>
    <g id="ui" stroke="none" stroke-width="1" fill="none" fill-rule="evenodd">
        <g id="4.-团体课详情" transform="translate(-30.000000, -1116.000000)">
            <g id="Featured-Section" transform="translate(0.000000, 129.000000)" fill="#FFFFFF">
                <g id="Body-background" transform="translate(0.000000, 585.000000)">
                    <rect id="Rectangle-41" x="0" y="0" width="750" height="1951"></rect>
                </g>
            </g>
            <g id="场地细节" transform="translate(38.000000, 1008.000000)" fill="#B6B6B6">
                <path d="M35.793125,136.425125 L23.5,155.4425 L11.206875,136.42675 C9.681,134.065625 8.875,131.32425 8.875,128.5 C8.875,120.435125 15.435125,113.875 23.5,113.875 C31.56325,113.875 38.125,120.435125 38.125,128.5 C38.125,131.32425 37.317375,134.065625 35.793125,136.425125 M23.5,109 C12.7295,109 4,117.73275 4,128.5 C4,132.39675 5.142375,136.025375 7.111875,139.07225 L20.08425,159.141 C20.809,160.259 22.06675,161 23.5,161 C24.931625,161 26.189375,160.259 26.914125,159.141 L39.888125,139.07225 C41.856,136.025375 43,132.39675 43,128.5 C43,117.73275 34.268875,109 23.5,109 M23.5,131.75 C21.707625,131.75 20.25,130.292375 20.25,128.5 C20.25,126.70925 21.707625,125.25 23.5,125.25 C25.292375,125.25 26.75,126.70925 26.75,128.5 C26.75,130.292375 25.292375,131.75 23.5,131.75 M23.5,120.375 C19.01175,120.375 15.375,124.01175 15.375,128.5 C15.375,132.98825 19.01175,136.625 23.5,136.625 C27.986625,136.625 31.625,132.98825 31.625,128.5 C31.625,124.01175 27.986625,120.375 23.5,120.375" id="Fill-1"></path>
            </g>
        </g>
    </g>
</svg>