<?xml version="1.0" encoding="UTF-8" standalone="no"?>
<svg width="34px" height="34px" viewBox="0 0 34 34" version="1.1" xmlns="http://www.w3.org/2000/svg" xmlns:xlink="http://www.w3.org/1999/xlink">
    <!-- Generator: sketchtool 39.1 (31720) - http://www.bohemiancoding.com/sketch -->
    <title>F9DFC72D-1998-4093-9B50-3D1A71B55291</title>
    <desc>Created with sketchtool.</desc>
    <defs></defs>
    <g id="ui" stroke="none" stroke-width="1" fill="none" fill-rule="evenodd">
        <g id="4.-团体课详情-（修改2.0）" transform="translate(-37.000000, -1095.000000)">
            <g id="Featured-Section" transform="translate(0.000000, 129.000000)" fill="#FFFFFF">
                <g id="Body-background" transform="translate(0.000000, 585.000000)">
                    <rect id="Rectangle-41" x="0" y="0" width="750" height="1951"></rect>
                </g>
            </g>
            <g id="场地细节" transform="translate(41.000000, 1026.000000)"></g>
            <g id="价格" transform="translate(39.000000, 1097.000000)" fill="#B2B2B2">
                <g id="label">
                    <g id="Capa_1">
                        <g id="Group">
                            <path d="M29.7981579,2.04947368 C29.5876316,1.34157895 28.9213158,0.133684211 26.8228947,0.00236842105 C26.3428947,-0.0255263158 24.3963158,0.128157895 22.1007895,4.05947368 L13.8792105,4.04973684 L13.8781579,4.04973684 C13.7413158,4.04973684 13.6105263,4.08289474 13.4942105,4.14289474 C13.4005263,4.18763158 13.3147368,4.25052632 13.2410526,4.32842105 L0.351842105,18.0326316 C0.0234210526,18.3815789 0.0405263158,18.9305263 0.389473684,19.2592105 L12.7273684,30.8639474 C12.8944737,31.0213158 13.1084211,31.0994737 13.3215789,31.0994737 C13.5523684,31.0994737 13.7828947,31.0076316 13.9531579,30.8265789 L26.8,17.1681579 C26.9928947,16.9939474 27.1007895,16.7384211 27.0842105,16.4705263 L26.6007895,8.73473684 C29.0384211,6.71736842 30.3710526,3.97763158 29.7981579,2.04947368 L29.7981579,2.04947368 Z M13.2839474,29.0057895 L2.20947368,18.5894737 L14.2526316,5.785 L21.1897368,5.79315789 C20.8481579,6.51131579 20.5021053,7.32342105 20.155,8.22921053 C19.3721053,8.17315789 18.5647368,8.43026316 18.0155263,9.01447368 C17.015,10.0778947 17.0660526,11.7578947 18.13,12.76 C18.6236842,13.2244737 19.2681579,13.4794737 19.9452632,13.4794737 C20.6731579,13.4794737 21.3771053,13.1752632 21.8757895,12.645 C22.3605263,12.13 22.6155263,11.4560526 22.5936842,10.7486842 C22.5721053,10.0415789 22.2763158,9.385 21.7607895,8.90026316 C21.6626316,8.80789474 21.5523684,8.73315789 21.4418421,8.65921053 C21.8318421,7.68921053 22.2728947,6.71131579 22.7410526,5.79473684 L24.6789474,5.79710526 L25.3292105,16.1997368 L13.2839474,29.0057895 L13.2839474,29.0057895 Z M21.2636842,10.7894737 C21.2742105,11.1418421 21.1473684,11.4771053 20.9060526,11.7334211 C20.4234211,12.2455263 19.555,12.2723684 19.0431579,11.7905263 C18.5136842,11.2921053 18.4881579,10.4555263 18.9857895,9.92684211 C19.1747368,9.72578947 19.4142105,9.59263158 19.6773684,9.53868421 C19.5557895,9.88921053 19.4339474,10.2486842 19.3126316,10.6252632 C19.1994737,10.9755263 19.3921053,11.3505263 19.7421053,11.4631579 C19.81,11.485 19.8786842,11.4957895 19.9460526,11.4957895 C20.2273684,11.4957895 20.4889474,11.3160526 20.5794737,11.0342105 C20.6897368,10.6923684 20.8134211,10.3368421 20.9426316,9.97684211 C21.1378947,10.2044737 21.2542105,10.4857895 21.2636842,10.7894737 L21.2636842,10.7894737 Z M26.3597368,4.87684211 C26.3310526,4.42026316 25.9526316,4.06421053 25.495,4.06342105 L23.7136842,4.06131579 C24.7394737,2.41552632 25.8165789,1.27131579 26.7397368,1.33157895 C27.7242105,1.39289474 28.3239474,1.76210526 28.5218421,2.42868421 C28.8405263,3.50210526 28.1402632,5.35631579 26.4934211,7.01605263 L26.3597368,4.87684211 L26.3597368,4.87684211 Z" id="Shape"></path>
                            <path d="M15.2794737,16.6589474 L14.5539474,15.9765789 L13.8923684,16.68 C12.9539474,16.0905263 12.015,16.1694737 11.4018421,16.8210526 C10.7265789,17.5389474 10.9189474,18.4173684 11.4605263,19.4289474 C11.8339474,20.1292105 11.9036842,20.5297368 11.6389474,20.8113158 C11.3605263,21.1073684 10.9186842,20.9984211 10.4968421,20.6015789 C10.0157895,20.1492105 9.72526316,19.5826316 9.57421053,19.1202632 L8.53736842,19.7776316 C8.66552632,20.2047368 9.02157895,20.7907895 9.49657895,21.2797368 L8.83552632,21.9826316 L9.56105263,22.665 L10.2707895,21.9102632 C11.2613158,22.5626316 12.2568421,22.4389474 12.8765789,21.7802632 C13.5036842,21.1136842 13.5310526,20.3723684 12.9426316,19.2328947 C12.5360526,18.4042105 12.4231579,18.0047368 12.6528947,17.7607895 C12.8478947,17.5534211 13.1984211,17.4923684 13.6797368,17.945 C14.2126316,18.4463158 14.3926316,18.9371053 14.5086842,19.1997368 L15.5102632,18.565 C15.3778947,18.2165789 15.1413158,17.8 14.6663158,17.3110526 L15.2794737,16.6589474 L15.2794737,16.6589474 Z" id="Shape"></path>
                            <path d="M12.5015789,10.1660526 C12.3907895,10.0628947 12.2147368,10.0671053 12.1097368,10.1784211 C12.0047368,10.2894737 12.01,10.4652632 12.1215789,10.5705263 L20.8097368,18.7426316 C20.8631579,18.7926316 20.9313158,18.8178947 20.9997368,18.8178947 C21.0734211,18.8178947 21.1471053,18.7881579 21.2015789,18.7305263 C21.3068421,18.6192105 21.3013158,18.4436842 21.1897368,18.3384211 L12.5015789,10.1660526 L12.5015789,10.1660526 Z" id="Shape"></path>
                        </g>
                    </g>
                </g>
            </g>
        </g>
    </g>
</svg>