<?xml version="1.0" encoding="UTF-8" standalone="no"?>
<svg width="30px" height="31px" viewBox="0 0 30 31" version="1.1" xmlns="http://www.w3.org/2000/svg" xmlns:xlink="http://www.w3.org/1999/xlink">
    <!-- Generator: sketchtool 39.1 (31720) - http://www.bohemiancoding.com/sketch -->
    <title>3F7EDDBE-225E-4665-B118-321A10A6EC85</title>
    <desc>Created with sketchtool.</desc>
    <defs></defs>
    <g id="ui" stroke="none" stroke-width="1" fill="none" fill-rule="evenodd">
        <g id="1.主页-（修改2.0）" transform="translate(-683.000000, -763.000000)">
            <g id="Featured-Section" transform="translate(-1.000000, 130.000000)" fill="#FFFFFF">
                <g id="Body-background" transform="translate(0.000000, 599.000000)">
                    <rect id="Rectangle-41" x="17" y="0" width="720" height="93"></rect>
                </g>
            </g>
            <g id="right-arrow" transform="translate(690.000000, 770.000000)" fill="#F5A623">
                <path d="M1.17460317,18.3015873 C1.04761905,18.4285714 0.888888889,18.4920635 0.714285714,18.4920635 C0.53968254,18.4920635 0.380952381,18.4285714 0.253968254,18.3015873 C6.57390808e-14,18.047619 6.57390808e-14,17.6349206 0.253968254,17.3809524 L8.34920635,9.28571429 L0.253968254,1.19047619 C6.461498e-14,0.936507937 6.461498e-14,0.523809524 0.253968254,0.26984127 C0.507936508,0.0158730159 0.920634921,0.0158730159 1.17460317,0.26984127 L9.73015873,8.82539683 C9.98412698,9.07936508 9.98412698,9.49206349 9.73015873,9.74603175 L1.17460317,18.3015873 L1.17460317,18.3015873 Z" id="Shape"></path>
            </g>
            <g id="right-arrow" transform="translate(697.000000, 770.000000)" fill="#F5A623">
                <path d="M1.17460317,18.3015873 C1.04761905,18.4285714 0.888888889,18.4920635 0.714285714,18.4920635 C0.53968254,18.4920635 0.380952381,18.4285714 0.253968254,18.3015873 C6.57390808e-14,18.047619 6.57390808e-14,17.6349206 0.253968254,17.3809524 L8.34920635,9.28571429 L0.253968254,1.19047619 C6.461498e-14,0.936507937 6.461498e-14,0.523809524 0.253968254,0.26984127 C0.507936508,0.0158730159 0.920634921,0.0158730159 1.17460317,0.26984127 L9.73015873,8.82539683 C9.98412698,9.07936508 9.98412698,9.49206349 9.73015873,9.74603175 L1.17460317,18.3015873 L1.17460317,18.3015873 Z" id="Shape"></path>
            </g>
        </g>
    </g>
</svg>