<?xml version="1.0" encoding="UTF-8" standalone="no"?>
<svg width="95px" height="93px" viewBox="0 0 95 93" version="1.1" xmlns="http://www.w3.org/2000/svg" xmlns:xlink="http://www.w3.org/1999/xlink">
    <!-- Generator: sketchtool 3.8.3 (29802) - http://www.bohemiancoding.com/sketch -->
    <title>查看地图icon</title>
    <desc>Created with sketchtool.</desc>
    <defs>
        <circle id="path-1" cx="40" cy="40" r="40"></circle>
        <mask id="mask-2" maskContentUnits="userSpaceOnUse" maskUnits="objectBoundingBox" x="0" y="0" width="80" height="80" fill="white">
            <use xlink:href="#path-1"></use>
        </mask>
    </defs>
    <g id="ui" stroke="none" stroke-width="1" fill="none" fill-rule="evenodd">
        <g id="4.-团体课详情" transform="translate(-593.000000, -1003.000000)">
            <g id="Featured-Section" transform="translate(0.000000, 129.000000)" fill="#FFFFFF">
                <g id="Body-background" transform="translate(0.000000, 585.000000)">
                    <rect id="Rectangle-41" x="0" y="0" width="750" height="1951"></rect>
                </g>
            </g>
            <g id="场地细节" transform="translate(38.000000, 1008.000000)">
                <g id="Location" transform="translate(562.000000, 0.000000)">
                    <use id="Oval-139-Copy-2" stroke="#F6A623" mask="url(#mask-2)" stroke-width="4" fill="#FFFFFF" xlink:href="#path-1"></use>
                    <path d="M47.5655,40.8769 L40.0005,52.5799 L32.4355,40.8779 C31.4965,39.4249 31.0005,37.7379 31.0005,35.9999 C31.0005,31.0369 35.0375,26.9999 40.0005,26.9999 C44.9625,26.9999 49.0005,31.0369 49.0005,35.9999 C49.0005,37.7379 48.5035,39.4249 47.5655,40.8769 M40.0005,23.9999 C33.3725,23.9999 28.0005,29.3739 28.0005,35.9999 C28.0005,38.3979 28.7035,40.6309 29.9155,42.5059 L37.8985,54.8559 C38.3445,55.5439 39.1185,55.9999 40.0005,55.9999 C40.8815,55.9999 41.6555,55.5439 42.1015,54.8559 L50.0855,42.5059 C51.2965,40.6309 52.0005,38.3979 52.0005,35.9999 C52.0005,29.3739 46.6275,23.9999 40.0005,23.9999 M40.0005,37.9999 C38.8975,37.9999 38.0005,37.1029 38.0005,35.9999 C38.0005,34.8979 38.8975,33.9999 40.0005,33.9999 C41.1035,33.9999 42.0005,34.8979 42.0005,35.9999 C42.0005,37.1029 41.1035,37.9999 40.0005,37.9999 M40.0005,30.9999 C37.2385,30.9999 35.0005,33.2379 35.0005,35.9999 C35.0005,38.7619 37.2385,40.9999 40.0005,40.9999 C42.7615,40.9999 45.0005,38.7619 45.0005,35.9999 C45.0005,33.2379 42.7615,30.9999 40.0005,30.9999" id="Fill-1" fill="#F6A623"></path>
                </g>
            </g>
        </g>
    </g>
</svg>