<?xml version="1.0" encoding="UTF-8" standalone="no"?>
<svg width="95px" height="93px" viewBox="0 0 95 93" version="1.1" xmlns="http://www.w3.org/2000/svg" xmlns:xlink="http://www.w3.org/1999/xlink">
    <!-- Generator: sketchtool 3.8.3 (29802) - http://www.bohemiancoding.com/sketch -->
    <title>拨打电话icon</title>
    <desc>Created with sketchtool.</desc>
    <defs>
        <path d="M40,80 C62.09139,80 80,62.09139 80,40 C80,17.90861 62.09139,0 40,0 C17.90861,0 0,17.90861 0,40 C0,62.09139 17.90861,80 40,80 Z" id="path-1"></path>
        <mask id="mask-2" maskContentUnits="userSpaceOnUse" maskUnits="objectBoundingBox" x="0" y="0" width="80" height="80" fill="white">
            <use xlink:href="#path-1"></use>
        </mask>
    </defs>
    <g id="ui" stroke="none" stroke-width="1" fill="none" fill-rule="evenodd">
        <g id="4.-团体课详情" transform="translate(-496.000000, -1003.000000)">
            <g id="Featured-Section" transform="translate(0.000000, 129.000000)" fill="#FFFFFF">
                <g id="Body-background" transform="translate(0.000000, 585.000000)">
                    <rect id="Rectangle-41" x="0" y="0" width="750" height="1951"></rect>
                </g>
            </g>
            <g id="场地细节" transform="translate(38.000000, 1008.000000)">
                <g id="Call" transform="translate(468.000000, 0.000000)">
                    <use id="Oval-139-Copy-3" stroke="#F6A623" mask="url(#mask-2)" stroke-width="4" fill="#FFFFFF" xlink:href="#path-1"></use>
                    <path d="M52.4203,49.8854 L50.6163,51.7104 C49.4583,52.8824 47.6243,53.3054 46.0643,52.7534 C37.1673,49.6064 30.1193,42.3734 27.2113,33.4044 C26.6443,31.6524 27.2453,29.7244 28.7103,28.6084 L30.2873,27.4054 C30.6363,27.1394 31.0543,26.9984 31.4963,26.9984 C32.2483,26.9984 32.9313,27.4154 33.2763,28.0884 L35.9413,33.2684 C35.9783,33.3384 35.9963,33.4144 35.9963,33.4934 C35.9963,33.6524 35.9243,33.7644 35.8633,33.8304 L35.3103,34.4334 C33.9113,35.9534 33.6083,38.2094 34.5563,40.0454 C35.7523,42.3674 37.6153,44.2274 39.9403,45.4254 C41.7453,46.3554 44.0643,46.0424 45.5573,44.6724 L46.1623,44.1164 C46.2603,44.0264 46.5153,43.9324 46.7243,44.0394 L51.9073,46.7024 C52.5813,47.0484 52.9993,47.7304 52.9993,48.4824 C52.9993,49.0094 52.7933,49.5064 52.4203,49.8854 M53.2783,44.0364 L48.0953,41.3734 C46.8253,40.7184 45.1853,40.9424 44.1333,41.9094 L43.5273,42.4634 C42.9403,43.0034 42.0253,43.1284 41.3143,42.7604 C39.5473,41.8504 38.1333,40.4364 37.2223,38.6724 C36.8493,37.9484 36.9683,37.0604 37.5213,36.4614 L38.0753,35.8574 C38.6703,35.2094 38.9973,34.3704 38.9973,33.4934 C38.9973,32.9414 38.8633,32.3894 38.6103,31.8974 L35.9443,26.7174 C35.0823,25.0414 33.3773,24.0004 31.4963,24.0004 C30.3903,24.0004 29.3423,24.3544 28.4663,25.0234 L26.8903,26.2254 C24.4153,28.1114 23.3973,31.3674 24.3563,34.3284 C27.5513,44.1784 35.2913,52.1224 45.0643,55.5794 C45.8533,55.8594 46.6783,56.0004 47.5153,56.0004 C49.4723,56.0004 51.3803,55.2044 52.7513,53.8164 L54.5563,51.9914 C55.4873,51.0484 56.0003,49.8024 56.0003,48.4824 C56.0003,46.6014 54.9573,44.8974 53.2783,44.0364" id="Fill-1" fill="#F6A623"></path>
                </g>
            </g>
        </g>
    </g>
</svg>